<svg width="16" height="20" viewBox="0 0 16 20" fill="none" xmlns="http://www.w3.org/2000/svg">
<rect width="16" height="20" fill="#F5F5F5"/>
<g id="&#237;&#153;&#136;+&#236;&#149;&#140;&#235;&#166;&#188;&#235;&#130;&#180;&#236;&#151;&#173;">
<path d="M-237 -173C-237 -174.105 -236.105 -175 -235 -175H1941C1942.1 -175 1943 -174.105 1943 -173V1624C1943 1625.1 1942.1 1626 1941 1626H-235C-236.105 1626 -237 1625.1 -237 1624V-173Z" fill="#CCD0D7"/>
<path d="M-235 -175V-174H1941V-175V-176H-235V-175ZM1943 -173H1942V1624H1943H1944V-173H1943ZM1941 1626V1625H-235V1626V1627H1941V1626ZM-237 1624H-236V-173H-237H-238V1624H-237ZM-235 1626V1625C-235.552 1625 -236 1624.55 -236 1624H-237H-238C-238 1625.66 -236.657 1627 -235 1627V1626ZM1943 1624H1942C1942 1624.55 1941.55 1625 1941 1625V1626V1627C1942.66 1627 1944 1625.66 1944 1624H1943ZM1941 -175V-174C1941.55 -174 1942 -173.552 1942 -173H1943H1944C1944 -174.657 1942.66 -176 1941 -176V-175ZM-235 -175V-176C-236.657 -176 -238 -174.657 -238 -173H-237H-236C-236 -173.552 -235.552 -174 -235 -174V-175Z" fill="black" fill-opacity="0.1"/>
<g id="SCR-012  &#237;&#153;&#136;">
<g id="SCR-012  &#237;&#153;&#136;_2">
<g id="Group 2147224721">
<path id="Vector" d="M8 0C12.4 0 16 3.52 16 7.84C16 13.12 8 20 8 20C8 20 0 13.12 0 7.84C0 3.52 3.6 0 8 0Z" fill="white"/>
<path id="Vector_2" d="M7.9993 10.72C9.50151 10.72 10.7193 9.50224 10.7193 8.00002C10.7193 6.49781 9.50151 5.28003 7.9993 5.28003C6.49708 5.28003 5.2793 6.49781 5.2793 8.00002C5.2793 9.50224 6.49708 10.72 7.9993 10.72Z" fill="#D5D8DE"/>
</g>
</g>
</g>
</g>
</svg>
