<svg width="18" height="17" viewBox="0 0 18 17" fill="none" xmlns="http://www.w3.org/2000/svg">
<rect width="18" height="17" fill="#F5F5F5"/>
<g id="&#237;&#153;&#136;+&#236;&#149;&#140;&#235;&#166;&#188;&#235;&#130;&#180;&#236;&#151;&#173;">
<path d="M-249.2 -220.964C-249.2 -222.069 -248.305 -222.964 -247.2 -222.964H1928.8C1929.9 -222.964 1930.8 -222.069 1930.8 -220.964V1576.04C1930.8 1577.14 1929.9 1578.04 1928.8 1578.04H-247.2C-248.305 1578.04 -249.2 1577.14 -249.2 1576.04V-220.964Z" fill="#CCD0D7"/>
<path d="M-247.2 -222.964V-221.964H1928.8V-222.964V-223.964H-247.2V-222.964ZM1930.8 -220.964H1929.8V1576.04H1930.8H1931.8V-220.964H1930.8ZM1928.8 1578.04V1577.04H-247.2V1578.04V1579.04H1928.8V1578.04ZM-249.2 1576.04H-248.2V-220.964H-249.2H-250.2V1576.04H-249.2ZM-247.2 1578.04V1577.04C-247.752 1577.04 -248.2 1576.59 -248.2 1576.04H-249.2H-250.2C-250.2 1577.69 -248.857 1579.04 -247.2 1579.04V1578.04ZM1930.8 1576.04H1929.8C1929.8 1576.59 1929.35 1577.04 1928.8 1577.04V1578.04V1579.04C1930.46 1579.04 1931.8 1577.69 1931.8 1576.04H1930.8ZM1928.8 -222.964V-221.964C1929.35 -221.964 1929.8 -221.516 1929.8 -220.964H1930.8H1931.8C1931.8 -222.621 1930.46 -223.964 1928.8 -223.964V-222.964ZM-247.2 -222.964V-223.964C-248.857 -223.964 -250.2 -222.621 -250.2 -220.964H-249.2H-248.2C-248.2 -221.516 -247.752 -221.964 -247.2 -221.964V-222.964Z" fill="black" fill-opacity="0.1"/>
<g id="SCR-012  &#237;&#153;&#136;">
<g id="SCR-012  &#237;&#153;&#136;_2">
<path id="Vector" d="M13.7998 0.800049H3.7998C2.14295 0.800049 0.799805 2.12876 0.799805 3.76781V12.6711C0.799805 14.3101 2.14295 15.6389 3.7998 15.6389H13.7998C15.4567 15.6389 16.7998 14.3101 16.7998 12.6711V3.76781C16.7998 2.12876 15.4567 0.800049 13.7998 0.800049Z" stroke="#6D74D0" stroke-width="1.6"/>
</g>
</g>
</g>
</svg>
