<svg preserveAspectRatio="none" width="100%" height="100%" overflow="visible" style="display: block;" viewBox="0 0 28 30" fill="none" xmlns="http://www.w3.org/2000/svg">
<g id="Group 2147224770">
<path id="Vector" d="M4.95652 9.34848C4.95652 7.13433 5.90932 5.01086 7.6053 3.44521C9.30128 1.87957 11.6015 1 14 1C16.3985 1 18.6987 1.87957 20.3947 3.44521C22.0907 5.01086 23.0435 7.13433 23.0435 9.34848V16.6534L27 22.9148H1L4.95652 16.6534V9.34848Z" stroke="white" stroke-width="2" stroke-linejoin="round"/>
<path id="Vector_2" d="M13.9994 23.5498C15.71 23.5498 17.0229 24.8545 17.0229 26.375C17.0229 27.8955 15.71 29.2002 13.9994 29.2002C12.289 29.2 10.976 27.8955 10.976 26.375C10.976 24.8545 12.289 23.55 13.9994 23.5498Z" stroke="white" stroke-width="1.6"/>
</g>
</svg>
