<svg preserveAspectRatio="none" width="100%" height="100%" overflow="visible" style="display: block;" viewBox="0 0 9.86346 10.1" fill="none" xmlns="http://www.w3.org/2000/svg">
<g id="Group">
<path id="Vector" d="M0.650177 3.62625C0.949518 2.75093 1.51714 1.99222 2.27236 1.45795C3.02758 0.92369 3.93199 0.641054 4.85704 0.650216C5.78208 0.659377 6.68071 0.95987 7.42521 1.50899C8.1697 2.0581 8.72218 2.8279 9.00413 3.70899C9.28607 4.59007 9.28314 5.5376 8.99575 6.41692C8.70835 7.29624 8.15112 8.06261 7.40324 8.60711C6.65536 9.15161 5.75489 9.44653 4.8298 9.44997C3.90472 9.45341 3.00208 9.16518 2.25018 8.62625" stroke="#5A5A64" stroke-width="1.3" stroke-linecap="round"/>
<path id="Vector_2" d="M0.050177 4.62625L2.45018 8.92625L4.25018 6.32625L0.050177 4.62625Z" fill="#5A5A64"/>
</g>
</svg>
