<svg preserveAspectRatio="none" width="100%" height="100%" overflow="visible" style="display: block;" viewBox="0 0 12.7 12.6" fill="none" xmlns="http://www.w3.org/2000/svg">
<g id="Group">
<path id="Vector" d="M0.90002 6.30001C0.90002 5.06102 1.31836 3.85833 2.08725 2.8868C2.85614 1.91526 3.93054 1.2318 5.13638 0.947136C6.34222 0.662476 7.60885 0.793299 8.73105 1.31841C9.85325 1.84352 10.7653 2.73215 11.3194 3.84033C11.8735 4.94851 12.0371 6.21131 11.7839 7.42414C11.5307 8.63697 10.8754 9.72876 9.92413 10.5226C8.9729 11.3165 7.78149 11.766 6.54292 11.7981C5.30436 11.8303 4.09121 11.4434 3.10002 10.7" stroke="white" stroke-width="1.6" stroke-linecap="round"/>
<path id="Vector_2" d="M4.82617 7.03297L3.26953 9.02614L1.21387 6.78492L4.82617 7.03297Z" fill="white" stroke="white"/>
</g>
</svg>
