<svg width="38" height="38" viewBox="0 0 38 38" fill="none" xmlns="http://www.w3.org/2000/svg">
<rect width="38" height="38" fill="#F5F5F5"/>
<g id="&#236;&#177;&#132;&#236;&#154;&#169;/&#236;&#167;&#128;&#236;&#155;&#144;/&#234;&#181;&#144;&#236;&#156;&#161;/&#236;&#183;&#168;&#235;&#175;&#184;&#237;&#131;&#173; + &#236;&#131;&#129;&#236;&#132;&#184;&#237;&#142;&#152;&#236;&#157;&#180;&#236;&#167;&#128;">
<path d="M-571.3 -2151.3C-571.3 -2152.4 -570.404 -2153.3 -569.3 -2153.3H5068.7C5069.8 -2153.3 5070.7 -2152.4 5070.7 -2151.3V2899.7C5070.7 2900.8 5069.8 2901.7 5068.7 2901.7H-569.3C-570.404 2901.7 -571.3 2900.8 -571.3 2899.7V-2151.3Z" fill="#CCD0D7"/>
<path d="M-569.3 -2153.3V-2152.3H5068.7V-2153.3V-2154.3H-569.3V-2153.3ZM5070.7 -2151.3H5069.7V2899.7H5070.7H5071.7V-2151.3H5070.7ZM5068.7 2901.7V2900.7H-569.3V2901.7V2902.7H5068.7V2901.7ZM-571.3 2899.7H-570.3V-2151.3H-571.3H-572.3V2899.7H-571.3ZM-569.3 2901.7V2900.7C-569.852 2900.7 -570.3 2900.25 -570.3 2899.7H-571.3H-572.3C-572.3 2901.36 -570.957 2902.7 -569.3 2902.7V2901.7ZM5070.7 2899.7H5069.7C5069.7 2900.25 5069.25 2900.7 5068.7 2900.7V2901.7V2902.7C5070.36 2902.7 5071.7 2901.36 5071.7 2899.7H5070.7ZM5068.7 -2153.3V-2152.3C5069.25 -2152.3 5069.7 -2151.85 5069.7 -2151.3H5070.7H5071.7C5071.7 -2152.96 5070.36 -2154.3 5068.7 -2154.3V-2153.3ZM-569.3 -2153.3V-2154.3C-570.957 -2154.3 -572.3 -2152.96 -572.3 -2151.3H-571.3H-570.3C-570.3 -2151.85 -569.852 -2152.3 -569.3 -2152.3V-2153.3Z" fill="black" fill-opacity="0.1"/>
<g id="SCR-016  &#236;&#131;&#129;&#236;&#132;&#184; &#237;&#142;&#152;&#236;&#157;&#180;&#236;&#167;&#128;">
<g id="Group 2147224744">
<path id="Vector" d="M18.7002 36.7C28.6413 36.7 36.7002 28.6411 36.7002 18.7C36.7002 8.75883 28.6413 0.699951 18.7002 0.699951C8.75907 0.699951 0.700195 8.75883 0.700195 18.7C0.700195 28.6411 8.75907 36.7 18.7002 36.7Z" stroke="#EEEEF2" stroke-width="1.4"/>
<path id="Vector_2" d="M11.7002 13.7C12.8048 13.7 13.7002 12.8045 13.7002 11.7C13.7002 10.5954 12.8048 9.69995 11.7002 9.69995C10.5956 9.69995 9.7002 10.5954 9.7002 11.7C9.7002 12.8045 10.5956 13.7 11.7002 13.7Z" fill="#333640"/>
<path id="Vector_3" d="M25.7002 20.7C26.8048 20.7 27.7002 19.8045 27.7002 18.7C27.7002 17.5954 26.8048 16.7 25.7002 16.7C24.5956 16.7 23.7002 17.5954 23.7002 18.7C23.7002 19.8045 24.5956 20.7 25.7002 20.7Z" fill="#333640"/>
<path id="Vector_4" d="M11.7002 27.7C12.8048 27.7 13.7002 26.8045 13.7002 25.7C13.7002 24.5954 12.8048 23.7 11.7002 23.7C10.5956 23.7 9.7002 24.5954 9.7002 25.7C9.7002 26.8045 10.5956 27.7 11.7002 27.7Z" fill="#333640"/>
<path id="Vector_5" d="M11.7002 11.7L25.7002 18.7" stroke="#333640" stroke-width="1.3"/>
<path id="Vector_6" d="M11.7002 25.7L25.7002 18.7" stroke="#333640" stroke-width="1.3"/>
</g>
</g>
</g>
</svg>
