<svg width="44" height="44" viewBox="0 0 44 44" fill="none" xmlns="http://www.w3.org/2000/svg">
<rect width="44" height="44" fill="#F5F5F5"/>
<g id="&#237;&#153;&#136;+&#236;&#149;&#140;&#235;&#166;&#188;&#235;&#130;&#180;&#236;&#151;&#173;">
<path d="M-534 -119.871C-534 -120.976 -533.105 -121.871 -532 -121.871H1644C1645.1 -121.871 1646 -120.976 1646 -119.871V1677.13C1646 1678.23 1645.1 1679.13 1644 1679.13H-532C-533.105 1679.13 -534 1678.23 -534 1677.13V-119.871Z" fill="#CCD0D7"/>
<path d="M-532 -121.871V-120.871H1644V-121.871V-122.871H-532V-121.871ZM1646 -119.871H1645V1677.13H1646H1647V-119.871H1646ZM1644 1679.13V1678.13H-532V1679.13V1680.13H1644V1679.13ZM-534 1677.13H-533V-119.871H-534H-535V1677.13H-534ZM-532 1679.13V1678.13C-532.552 1678.13 -533 1677.68 -533 1677.13H-534H-535C-535 1678.79 -533.657 1680.13 -532 1680.13V1679.13ZM1646 1677.13H1645C1645 1677.68 1644.55 1678.13 1644 1678.13V1679.13V1680.13C1645.66 1680.13 1647 1678.79 1647 1677.13H1646ZM1644 -121.871V-120.871C1644.55 -120.871 1645 -120.423 1645 -119.871H1646H1647C1647 -121.528 1645.66 -122.871 1644 -122.871V-121.871ZM-532 -121.871V-122.871C-533.657 -122.871 -535 -121.528 -535 -119.871H-534H-533C-533 -120.423 -532.552 -120.871 -532 -120.871V-121.871Z" fill="black" fill-opacity="0.1"/>
<g id="SCR-012  &#237;&#153;&#136;">
<g id="SCR-012  &#237;&#153;&#136;_2">
<path id="Vector" d="M22 43.5272C34.1503 43.5272 44 33.7833 44 21.7636C44 9.74389 34.1503 0 22 0C9.84974 0 0 9.74389 0 21.7636C0 33.7833 9.84974 43.5272 22 43.5272Z" fill="white" fill-opacity="0.25"/>
</g>
</g>
</g>
</svg>
