<svg width="18" height="18" viewBox="0 0 18 18" fill="none" xmlns="http://www.w3.org/2000/svg">
<rect width="18" height="18" fill="#F5F5F5"/>
<g id="&#235;&#158;&#156;&#235;&#148;&#169; &#235;&#176;&#143; &#235;&#161;&#156;&#234;&#183;&#184;&#236;&#157;&#184;">
<path d="M-336 -946.72C-336 -947.824 -335.105 -948.72 -334 -948.72H891C892.105 -948.72 893 -947.824 893 -946.72V2625.28C893 2626.39 892.105 2627.28 891 2627.28H-334C-335.105 2627.28 -336 2626.38 -336 2625.28V-946.72Z" fill="#CCD0D7"/>
<path d="M-334 -948.72V-947.72H891V-948.72V-949.72H-334V-948.72ZM893 -946.72H892V2625.28H893H894V-946.72H893ZM891 2627.28V2626.28H-334V2627.28V2628.28H891V2627.28ZM-336 2625.28H-335V-946.72H-336H-337V2625.28H-336ZM-334 2627.28V2626.28C-334.552 2626.28 -335 2625.83 -335 2625.28H-336H-337C-337 2626.94 -335.657 2628.28 -334 2628.28V2627.28ZM893 2625.28H892C892 2625.83 891.552 2626.28 891 2626.28V2627.28V2628.28C892.657 2628.28 894 2626.94 894 2625.28H893ZM891 -948.72V-947.72C891.552 -947.72 892 -947.272 892 -946.72H893H894C894 -948.377 892.657 -949.72 891 -949.72V-948.72ZM-334 -948.72V-949.72C-335.657 -949.72 -337 -948.377 -337 -946.72H-336H-335C-335 -947.272 -334.552 -947.72 -334 -947.72V-948.72Z" fill="black" fill-opacity="0.1"/>
<g id="Section">
<rect width="430" height="774.75" transform="translate(-206 -172.75)" fill="white"/>
<g id="Container">
<g id="Overlay+Border+Shadow" filter="url(#filter0_d_0_1)">
<rect x="-182" y="-67" width="382" height="206" rx="20" fill="white" fill-opacity="0.01" shape-rendering="crispEdges"/>
<rect x="-181.5" y="-66.5" width="381" height="205" rx="19.5" stroke="#F1F1F5" shape-rendering="crispEdges"/>
<g id="Container_2">
<g id="SVG">
<path id="Vector" d="M4.5 6.75L9 11.25L13.5 6.75" stroke="#D1D5DB" stroke-width="1.5" stroke-linecap="round" stroke-linejoin="round"/>
</g>
</g>
</g>
</g>
</g>
</g>
<defs>
<filter id="filter0_d_0_1" x="-192" y="-75" width="402" height="226" filterUnits="userSpaceOnUse" color-interpolation-filters="sRGB">
<feFlood flood-opacity="0" result="BackgroundImageFix"/>
<feColorMatrix in="SourceAlpha" type="matrix" values="0 0 0 0 0 0 0 0 0 0 0 0 0 0 0 0 0 0 127 0" result="hardAlpha"/>
<feOffset dy="2"/>
<feGaussianBlur stdDeviation="5"/>
<feComposite in2="hardAlpha" operator="out"/>
<feColorMatrix type="matrix" values="0 0 0 0 0 0 0 0 0 0 0 0 0 0 0 0 0 0 0.04 0"/>
<feBlend mode="normal" in2="BackgroundImageFix" result="effect1_dropShadow_0_1"/>
<feBlend mode="normal" in="SourceGraphic" in2="effect1_dropShadow_0_1" result="shape"/>
</filter>
</defs>
</svg>
