<svg width="22" height="22" viewBox="0 0 22 22" fill="none" xmlns="http://www.w3.org/2000/svg">
<rect width="22" height="22" fill="#F5F5F5"/>
<g id="&#235;&#158;&#156;&#235;&#148;&#169; &#235;&#176;&#143; &#235;&#161;&#156;&#234;&#183;&#184;&#236;&#157;&#184;">
<path d="M-184 -1219.72C-184 -1220.82 -183.105 -1221.72 -182 -1221.72H1043C1044.1 -1221.72 1045 -1220.82 1045 -1219.72V2352.28C1045 2353.39 1044.1 2354.28 1043 2354.28H-182C-183.105 2354.28 -184 2353.38 -184 2352.28V-1219.72Z" fill="#CCD0D7"/>
<path d="M-182 -1221.72V-1220.72H1043V-1221.72V-1222.72H-182V-1221.72ZM1045 -1219.72H1044V2352.28H1045H1046V-1219.72H1045ZM1043 2354.28V2353.28H-182V2354.28V2355.28H1043V2354.28ZM-184 2352.28H-183V-1219.72H-184H-185V2352.28H-184ZM-182 2354.28V2353.28C-182.552 2353.28 -183 2352.83 -183 2352.28H-184H-185C-185 2353.94 -183.657 2355.28 -182 2355.28V2354.28ZM1045 2352.28H1044C1044 2352.83 1043.55 2353.28 1043 2353.28V2354.28V2355.28C1044.66 2355.28 1046 2353.94 1046 2352.28H1045ZM1043 -1221.72V-1220.72C1043.55 -1220.72 1044 -1220.27 1044 -1219.72H1045H1046C1046 -1221.38 1044.66 -1222.72 1043 -1222.72V-1221.72ZM-182 -1221.72V-1222.72C-183.657 -1222.72 -185 -1221.38 -185 -1219.72H-184H-183C-183 -1220.27 -182.552 -1220.72 -182 -1220.72V-1221.72Z" fill="black" fill-opacity="0.1"/>
<g id="Section">
<rect width="430" height="774.75" transform="translate(-54 -445.75)" fill="white"/>
<g id="Container">
<g id="Overlay+Border+Shadow" filter="url(#filter0_d_0_1)">
<rect x="-30" y="-118" width="382" height="179.75" rx="20" fill="white" fill-opacity="0.01" shape-rendering="crispEdges"/>
<rect x="-29.5" y="-117.5" width="381" height="178.75" rx="19.5" stroke="#F1F1F5" shape-rendering="crispEdges"/>
<g id="Container_2">
<g id="Background">
<rect x="-11" y="-11" width="44" height="44" rx="12" fill="#EEF0FB"/>
<g id="SVG">
<path id="Vector" d="M10.5417 2.10843C10.5718 2.01673 10.6301 1.93689 10.7083 1.88029C10.7865 1.82369 10.8806 1.79321 10.9771 1.79321C11.0736 1.79321 11.1677 1.82369 11.2459 1.88029C11.324 1.93689 11.3824 2.01673 11.4125 2.10843L13.5208 6.39843C13.6593 6.68242 13.8655 6.92797 14.1213 7.11341C14.3771 7.29885 14.6746 7.41849 14.9875 7.46177L19.7175 8.15843C19.8069 8.17109 19.8911 8.20844 19.9605 8.26627C20.0298 8.32411 20.0817 8.40014 20.1103 8.48583C20.1389 8.57153 20.143 8.66349 20.1222 8.75138C20.1014 8.83928 20.0565 8.91964 19.9925 8.98343L16.5642 12.3201C16.3383 12.5403 16.17 12.8126 16.0741 13.1131C15.9782 13.4136 15.9576 13.7331 16.0142 14.0434L16.8208 18.7551C16.8366 18.8447 16.8268 18.9368 16.7927 19.0211C16.7587 19.1054 16.7016 19.1785 16.6281 19.232C16.5545 19.2854 16.4675 19.3172 16.3768 19.3237C16.2861 19.3301 16.1954 19.311 16.115 19.2684L11.88 17.0409C11.602 16.8933 11.2919 16.816 10.9771 16.816C10.6623 16.816 10.3522 16.8933 10.0742 17.0409L5.86667 19.2501C5.78631 19.2926 5.69562 19.3118 5.60492 19.3053C5.51422 19.2989 5.42715 19.2671 5.35361 19.2136C5.28007 19.1601 5.22302 19.0871 5.18894 19.0028C5.15486 18.9185 5.14513 18.8263 5.16084 18.7368L5.96751 14.0251C6.02404 13.7148 6.00345 13.3953 5.90755 13.0948C5.81164 12.7943 5.64336 12.522 5.41751 12.3018L1.98001 8.98343C1.91606 8.91964 1.87115 8.83928 1.85035 8.75138C1.82954 8.66349 1.83365 8.57153 1.86221 8.48583C1.89078 8.40014 1.94266 8.32411 2.01205 8.26627C2.08144 8.20844 2.16557 8.17109 2.25501 8.15843L6.98501 7.46177C7.29796 7.41849 7.59546 7.29885 7.85124 7.11341C8.10702 6.92797 8.31323 6.68242 8.45167 6.39843L10.5417 2.10843Z" stroke="#5B6DBF" stroke-width="1.83333" stroke-linecap="round" stroke-linejoin="round"/>
</g>
</g>
</g>
</g>
</g>
</g>
</g>
<defs>
<filter id="filter0_d_0_1" x="-40" y="-126" width="402" height="199.75" filterUnits="userSpaceOnUse" color-interpolation-filters="sRGB">
<feFlood flood-opacity="0" result="BackgroundImageFix"/>
<feColorMatrix in="SourceAlpha" type="matrix" values="0 0 0 0 0 0 0 0 0 0 0 0 0 0 0 0 0 0 127 0" result="hardAlpha"/>
<feOffset dy="2"/>
<feGaussianBlur stdDeviation="5"/>
<feComposite in2="hardAlpha" operator="out"/>
<feColorMatrix type="matrix" values="0 0 0 0 0 0 0 0 0 0 0 0 0 0 0 0 0 0 0.04 0"/>
<feBlend mode="normal" in2="BackgroundImageFix" result="effect1_dropShadow_0_1"/>
<feBlend mode="normal" in="SourceGraphic" in2="effect1_dropShadow_0_1" result="shape"/>
</filter>
</defs>
</svg>
