<svg preserveAspectRatio="none" width="100%" height="100%" overflow="visible" style="display: block;" viewBox="0 0 19.3 17.8" fill="none" xmlns="http://www.w3.org/2000/svg">
<g id="Group">
<path id="Vector" d="M6.15 4.15C6.15 1.81667 7.31667 0.65 9.65 0.65C11.9833 0.65 13.15 1.81667 13.15 4.15" stroke="#B0B0B8" stroke-width="1.3" stroke-linecap="round"/>
<path id="Vector_2" d="M16.15 4.15H3.15C1.76929 4.15 0.65 5.26929 0.65 6.65V14.65C0.65 16.0307 1.76929 17.15 3.15 17.15H16.15C17.5307 17.15 18.65 16.0307 18.65 14.65V6.65C18.65 5.26929 17.5307 4.15 16.15 4.15Z" stroke="#B0B0B8" stroke-width="1.3"/>
<path id="Vector_3" d="M0.65 10.15H18.65" stroke="#B0B0B8" stroke-width="1.1"/>
<path id="Vector_4" d="M10.95 8.55H8.35C7.85294 8.55 7.45 8.95294 7.45 9.45V10.85C7.45 11.3471 7.85294 11.75 8.35 11.75H10.95C11.4471 11.75 11.85 11.3471 11.85 10.85V9.45C11.85 8.95294 11.4471 8.55 10.95 8.55Z" fill="#B0B0B8"/>
</g>
</svg>
