<svg width="22" height="19" viewBox="0 0 22 19" fill="none" xmlns="http://www.w3.org/2000/svg">
<rect width="22" height="19" fill="#F5F5F5"/>
<g id="&#237;&#153;&#136;+&#236;&#149;&#140;&#235;&#166;&#188;&#235;&#130;&#180;&#236;&#151;&#173;">
<path d="M-472.1 -1613.73C-472.1 -1614.84 -471.204 -1615.73 -470.1 -1615.73H1705.9C1707 -1615.73 1707.9 -1614.84 1707.9 -1613.73V183.266C1707.9 184.37 1707 185.266 1705.9 185.266H-470.1C-471.204 185.266 -472.1 184.37 -472.1 183.266V-1613.73Z" fill="#CCD0D7"/>
<path d="M-470.1 -1615.73V-1614.73H1705.9V-1615.73V-1616.73H-470.1V-1615.73ZM1707.9 -1613.73H1706.9V183.266H1707.9H1708.9V-1613.73H1707.9ZM1705.9 185.266V184.266H-470.1V185.266V186.266H1705.9V185.266ZM-472.1 183.266H-471.1V-1613.73H-472.1H-473.1V183.266H-472.1ZM-470.1 185.266V184.266C-470.652 184.266 -471.1 183.818 -471.1 183.266H-472.1H-473.1C-473.1 184.923 -471.756 186.266 -470.1 186.266V185.266ZM1707.9 183.266H1706.9C1706.9 183.818 1706.45 184.266 1705.9 184.266V185.266V186.266C1707.56 186.266 1708.9 184.923 1708.9 183.266H1707.9ZM1705.9 -1615.73V-1614.73C1706.45 -1614.73 1706.9 -1614.29 1706.9 -1613.73H1707.9H1708.9C1708.9 -1615.39 1707.56 -1616.73 1705.9 -1616.73V-1615.73ZM-470.1 -1615.73V-1616.73C-471.756 -1616.73 -473.1 -1615.39 -473.1 -1613.73H-472.1H-471.1C-471.1 -1614.29 -470.652 -1614.73 -470.1 -1614.73V-1615.73Z" fill="black" fill-opacity="0.1"/>
<g id="SCR-012  &#237;&#153;&#136;">
<g id="SCR-012  &#237;&#153;&#136;_2">
<path id="Vector" d="M18.4004 0.899902H3.40039C2.01968 0.899902 0.900391 2.00716 0.900391 3.37304V15.2441C0.900391 16.61 2.01968 17.7172 3.40039 17.7172H18.4004C19.7811 17.7172 20.9004 16.61 20.9004 15.2441V3.37304C20.9004 2.00716 19.7811 0.899902 18.4004 0.899902Z" stroke="#AEB2BC" stroke-width="1.8"/>
</g>
</g>
</g>
</svg>
