<svg preserveAspectRatio="none" width="100%" height="100%" overflow="visible" style="display: block;" viewBox="0 0 17.3 17.4" fill="none" xmlns="http://www.w3.org/2000/svg">
<g id="Group">
<path id="Vector" d="M15.15 3.75H2.15C1.32157 3.75 0.65 4.42157 0.65 5.25V15.25C0.65 16.0784 1.32157 16.75 2.15 16.75H15.15C15.9784 16.75 16.65 16.0784 16.65 15.25V5.25C16.65 4.42157 15.9784 3.75 15.15 3.75Z" stroke="#B0B0B8" stroke-width="1.3"/>
<path id="Vector_2" d="M4.65 0.75V4.75" stroke="#B0B0B8" stroke-width="1.5" stroke-linecap="round"/>
<path id="Vector_3" d="M12.65 0.75V4.75" stroke="#B0B0B8" stroke-width="1.5" stroke-linecap="round"/>
<path id="Vector_4" d="M0.65 7.75H16.65" stroke="#B0B0B8"/>
<path id="Vector_5" d="M4.65 12.75C5.20228 12.75 5.65 12.3023 5.65 11.75C5.65 11.1977 5.20228 10.75 4.65 10.75C4.09772 10.75 3.65 11.1977 3.65 11.75C3.65 12.3023 4.09772 12.75 4.65 12.75Z" fill="#B0B0B8"/>
<path id="Vector_6" d="M8.65 12.75C9.20228 12.75 9.65 12.3023 9.65 11.75C9.65 11.1977 9.20228 10.75 8.65 10.75C8.09772 10.75 7.65 11.1977 7.65 11.75C7.65 12.3023 8.09772 12.75 8.65 12.75Z" fill="#B0B0B8"/>
<path id="Vector_7" d="M12.65 12.75C13.2023 12.75 13.65 12.3023 13.65 11.75C13.65 11.1977 13.2023 10.75 12.65 10.75C12.0977 10.75 11.65 11.1977 11.65 11.75C11.65 12.3023 12.0977 12.75 12.65 12.75Z" fill="#B0B0B8"/>
</g>
</svg>
