<svg width="13" height="13" viewBox="0 0 13 13" fill="none" xmlns="http://www.w3.org/2000/svg">
<rect width="13" height="13" fill="#F5F5F5"/>
<g id="&#237;&#153;&#136;+&#236;&#149;&#140;&#235;&#166;&#188;&#235;&#130;&#180;&#236;&#151;&#173;">
<path d="M-554.6 -1611.26C-554.6 -1612.37 -553.704 -1613.26 -552.6 -1613.26H1623.4C1624.5 -1613.26 1625.4 -1612.37 1625.4 -1611.26V185.739C1625.4 186.844 1624.5 187.739 1623.4 187.739H-552.6C-553.704 187.739 -554.6 186.844 -554.6 185.739V-1611.26Z" fill="#CCD0D7"/>
<path d="M-552.6 -1613.26V-1612.26H1623.4V-1613.26V-1614.26H-552.6V-1613.26ZM1625.4 -1611.26H1624.4V185.739H1625.4H1626.4V-1611.26H1625.4ZM1623.4 187.739V186.739H-552.6V187.739V188.739H1623.4V187.739ZM-554.6 185.739H-553.6V-1611.26H-554.6H-555.6V185.739H-554.6ZM-552.6 187.739V186.739C-553.152 186.739 -553.6 186.291 -553.6 185.739H-554.6H-555.6C-555.6 187.396 -554.256 188.739 -552.6 188.739V187.739ZM1625.4 185.739H1624.4C1624.4 186.291 1623.95 186.739 1623.4 186.739V187.739V188.739C1625.06 188.739 1626.4 187.396 1626.4 185.739H1625.4ZM1623.4 -1613.26V-1612.26C1623.95 -1612.26 1624.4 -1611.81 1624.4 -1611.26H1625.4H1626.4C1626.4 -1612.92 1625.06 -1614.26 1623.4 -1614.26V-1613.26ZM-552.6 -1613.26V-1614.26C-554.256 -1614.26 -555.6 -1612.92 -555.6 -1611.26H-554.6H-553.6C-553.6 -1611.81 -553.152 -1612.26 -552.6 -1612.26V-1613.26Z" fill="black" fill-opacity="0.1"/>
<g id="SCR-012  &#237;&#153;&#136;">
<g id="SCR-012  &#237;&#153;&#136;_2">
<path id="Vector" d="M6.40039 11.7817C9.43796 11.7817 11.9004 9.34572 11.9004 6.3408C11.9004 3.33588 9.43796 0.899902 6.40039 0.899902C3.36282 0.899902 0.900391 3.33588 0.900391 6.3408C0.900391 9.34572 3.36282 11.7817 6.40039 11.7817Z" stroke="#AEB2BC" stroke-width="1.8"/>
</g>
</g>
</g>
</svg>
