<svg width="22" height="20" viewBox="0 0 22 20" fill="none" xmlns="http://www.w3.org/2000/svg">
<rect width="22" height="20" fill="#F5F5F5"/>
<g id="&#237;&#153;&#136;+&#236;&#149;&#140;&#235;&#166;&#188;&#235;&#130;&#180;&#236;&#151;&#173;">
<path d="M-394.2 -1612.72C-394.2 -1613.83 -393.305 -1614.72 -392.2 -1614.72H1783.8C1784.9 -1614.72 1785.8 -1613.83 1785.8 -1612.72V184.279C1785.8 185.383 1784.9 186.279 1783.8 186.279H-392.2C-393.305 186.279 -394.2 185.383 -394.2 184.279V-1612.72Z" fill="#CCD0D7"/>
<path d="M-392.2 -1614.72V-1613.72H1783.8V-1614.72V-1615.72H-392.2V-1614.72ZM1785.8 -1612.72H1784.8V184.279H1785.8H1786.8V-1612.72H1785.8ZM1783.8 186.279V185.279H-392.2V186.279V187.279H1783.8V186.279ZM-394.2 184.279H-393.2V-1612.72H-394.2H-395.2V184.279H-394.2ZM-392.2 186.279V185.279C-392.752 185.279 -393.2 184.831 -393.2 184.279H-394.2H-395.2C-395.2 185.936 -393.857 187.279 -392.2 187.279V186.279ZM1785.8 184.279H1784.8C1784.8 184.831 1784.35 185.279 1783.8 185.279V186.279V187.279C1785.46 187.279 1786.8 185.936 1786.8 184.279H1785.8ZM1783.8 -1614.72V-1613.72C1784.35 -1613.72 1784.8 -1613.27 1784.8 -1612.72H1785.8H1786.8C1786.8 -1614.38 1785.46 -1615.72 1783.8 -1615.72V-1614.72ZM-392.2 -1614.72V-1615.72C-393.857 -1615.72 -395.2 -1614.38 -395.2 -1612.72H-394.2H-393.2C-393.2 -1613.27 -392.752 -1613.72 -392.2 -1613.72V-1614.72Z" fill="black" fill-opacity="0.1"/>
<g id="SCR-012  &#237;&#153;&#136;">
<g id="SCR-012  &#237;&#153;&#136;_2">
<path id="Vector" d="M0.799805 1.91272C7.46647 -0.0657927 10.7998 0.59371 10.7998 3.89122C10.7998 0.59371 14.1331 -0.0657927 20.7998 1.91272V16.7515C14.1331 14.773 10.7998 15.4325 10.7998 18.73C10.7998 15.4325 7.46647 14.773 0.799805 16.7515V1.91272Z" stroke="#AEB2BC" stroke-width="1.6" stroke-linejoin="round"/>
</g>
</g>
</g>
</svg>
