<svg width="24" height="22" viewBox="0 0 24 22" fill="none" xmlns="http://www.w3.org/2000/svg">
<rect width="24" height="22" fill="#F5F5F5"/>
<g id="&#237;&#153;&#136;+&#236;&#149;&#140;&#235;&#166;&#188;&#235;&#130;&#180;&#236;&#151;&#173;">
<path d="M-237.1 -1611.76C-237.1 -1612.86 -236.204 -1613.76 -235.1 -1613.76H1940.9C1942 -1613.76 1942.9 -1612.86 1942.9 -1611.76V185.244C1942.9 186.349 1942 187.244 1940.9 187.244H-235.1C-236.204 187.244 -237.1 186.349 -237.1 185.244V-1611.76Z" fill="#CCD0D7"/>
<path d="M-235.1 -1613.76V-1612.76H1940.9V-1613.76V-1614.76H-235.1V-1613.76ZM1942.9 -1611.76H1941.9V185.244H1942.9H1943.9V-1611.76H1942.9ZM1940.9 187.244V186.244H-235.1V187.244V188.244H1940.9V187.244ZM-237.1 185.244H-236.1V-1611.76H-237.1H-238.1V185.244H-237.1ZM-235.1 187.244V186.244C-235.652 186.244 -236.1 185.797 -236.1 185.244H-237.1H-238.1C-238.1 186.901 -236.756 188.244 -235.1 188.244V187.244ZM1942.9 185.244H1941.9C1941.9 185.797 1941.45 186.244 1940.9 186.244V187.244V188.244C1942.56 188.244 1943.9 186.901 1943.9 185.244H1942.9ZM1940.9 -1613.76V-1612.76C1941.45 -1612.76 1941.9 -1612.31 1941.9 -1611.76H1942.9H1943.9C1943.9 -1613.41 1942.56 -1614.76 1940.9 -1614.76V-1613.76ZM-235.1 -1613.76V-1614.76C-236.756 -1614.76 -238.1 -1613.41 -238.1 -1611.76H-237.1H-236.1C-236.1 -1612.31 -235.652 -1612.76 -235.1 -1612.76V-1613.76Z" fill="black" fill-opacity="0.1"/>
<g id="SCR-012  &#237;&#153;&#136;">
<g id="SCR-012  &#237;&#153;&#136;_2">
<path id="Vector" d="M0.900391 11.7817L11.9004 0.899902L22.9004 11.7817V20.685H0.900391V11.7817Z" stroke="#7583E2" stroke-width="1.8" stroke-linejoin="round"/>
</g>
</g>
</g>
</svg>
