<svg width="24" height="17" viewBox="0 0 24 17" fill="none" xmlns="http://www.w3.org/2000/svg">
<rect width="24" height="17" fill="#F5F5F5"/>
<g id="&#237;&#153;&#136;+&#236;&#149;&#140;&#235;&#166;&#188;&#235;&#130;&#180;&#236;&#151;&#173;">
<path d="M-315.1 -1616.7C-315.1 -1617.81 -314.204 -1618.7 -313.1 -1618.7H1862.9C1864 -1618.7 1864.9 -1617.81 1864.9 -1616.7V180.298C1864.9 181.403 1864 182.298 1862.9 182.298H-313.1C-314.204 182.298 -315.1 181.403 -315.1 180.298V-1616.7Z" fill="#CCD0D7"/>
<path d="M-313.1 -1618.7V-1617.7H1862.9V-1618.7V-1619.7H-313.1V-1618.7ZM1864.9 -1616.7H1863.9V180.298H1864.9H1865.9V-1616.7H1864.9ZM1862.9 182.298V181.298H-313.1V182.298V183.298H1862.9V182.298ZM-315.1 180.298H-314.1V-1616.7H-315.1H-316.1V180.298H-315.1ZM-313.1 182.298V181.298C-313.652 181.298 -314.1 180.85 -314.1 180.298H-315.1H-316.1C-316.1 181.955 -314.756 183.298 -313.1 183.298V182.298ZM1864.9 180.298H1863.9C1863.9 180.85 1863.45 181.298 1862.9 181.298V182.298V183.298C1864.56 183.298 1865.9 181.955 1865.9 180.298H1864.9ZM1862.9 -1618.7V-1617.7C1863.45 -1617.7 1863.9 -1617.25 1863.9 -1616.7H1864.9H1865.9C1865.9 -1618.36 1864.56 -1619.7 1862.9 -1619.7V-1618.7ZM-313.1 -1618.7V-1619.7C-314.756 -1619.7 -316.1 -1618.36 -316.1 -1616.7H-315.1H-314.1C-314.1 -1617.25 -313.652 -1617.7 -313.1 -1617.7V-1618.7Z" fill="black" fill-opacity="0.1"/>
<g id="SCR-012  &#237;&#153;&#136;">
<g id="SCR-012  &#237;&#153;&#136;_2">
<path id="Vector" d="M20.4004 0.899902H3.40039C2.01968 0.899902 0.900391 2.00716 0.900391 3.37304V13.2656C0.900391 14.6315 2.01968 15.7387 3.40039 15.7387H20.4004C21.7811 15.7387 22.9004 14.6315 22.9004 13.2656V3.37304C22.9004 2.00716 21.7811 0.899902 20.4004 0.899902Z" stroke="#AEB2BC" stroke-width="1.8"/>
</g>
</g>
</g>
</svg>
